<svg width="1134" height="945" xmlns="http://www.w3.org/2000/svg" xmlns:xlink="http://www.w3.org/1999/xlink" overflow="hidden"><defs><clipPath id="clip0"><rect x="0" y="0" width="1134" height="945"/></clipPath></defs><g clip-path="url(#clip0)"><rect x="0" y="0" width="1134" height="945.028" fill="#FFFFFF" fill-opacity="0"/><path d="M1149.02 597.868 1167.71 597.868 1167.71 615.641 1149.02 615.641Z" transform="matrix(1 0 0 1.00089 -403.474 -146.004)"/><path d="M1149.02 640.701 1167.71 640.701 1167.71 662.003 1149.02 662.003Z" transform="matrix(1 0 0 1.00089 -403.474 -146.004)"/><path d="M1189.9 923.586 1246.19 923.586 1246.19 942.272 1189.9 942.272Z" transform="matrix(1 0 0 1.00089 -403.474 -146.004)"/><path d="M1428.61 695.99 1438.82 696.53 1438.82 587.404 1190.84 587.404 1190.84 605.986 1420.26 605.986 1420.26 677.844C1377.68 682.163 1344.31 718.227 1344.31 761.952 1344.31 805.594 1377.55 841.617 1420.05 846.039L1420.05 922.984 1385.32 922.984C1357.49 922.984 1335.92 892.588 1335.92 866.469L1317.24 866.469C1317.24 892.588 1295.67 922.921 1267.84 922.921L1267.84 941.607C1295.67 941.607 1317.24 971.962 1317.24 998.06L1335.92 998.06C1335.92 971.962 1357.49 941.545 1385.32 941.545L1438.63 941.545 1438.63 827.893 1428.85 827.893C1392.5 827.893 1362.91 798.307 1362.91 761.952 1362.87 725.639 1392.33 696.115 1428.61 695.99ZM1326.56 962.141C1320.19 950.057 1310.82 939.406 1299.42 932.264 1310.82 925.122 1320.19 914.45 1326.56 902.388 1332.93 914.471 1342.3 925.122 1353.7 932.285 1342.28 939.406 1332.93 950.057 1326.56 962.141Z" transform="matrix(1 0 0 1.00089 -403.474 -146.004)"/><path d="M794.03 587.342 1121.62 587.342 1121.62 606.028 794.03 606.028Z" transform="matrix(1 0 0 1.00089 -403.474 -146.004)"/><path d="M565.853 606.028 654.985 606.028C682.64 606.277 704.046 636.465 704.046 662.48L722.732 662.48C722.732 636.361 744.304 606.028 772.125 606.028L772.125 587.342C743.847 587.342 722.732 557.839 722.732 531.471L704.046 531.471C704.046 557.839 682.91 587.342 654.653 587.342L654.653 587.363 547.167 587.363 547.167 942.292 1121.62 942.292 1121.62 923.607 565.853 923.607 565.853 606.028ZM713.389 567.992C719.846 579.971 729.272 590.02 740.359 596.789 729.023 603.931 719.742 614.561 713.389 626.562 707.036 614.54 697.755 603.931 686.419 596.789 697.527 590.02 706.932 579.951 713.389 567.992Z" transform="matrix(1 0 0 1.00089 -403.474 -146.004)"/><path d="M1263.21 686.398 1281.9 686.398 1281.9 837.464 1263.21 837.464Z" transform="matrix(1 0 0 1.00089 -403.474 -146.004)"/><path d="M1225.9 686.398 1244.59 686.398 1244.59 775.697 1225.9 775.697Z" transform="matrix(1 0 0 1.00089 -403.474 -146.004)"/><path d="M1225.9 798.224 1244.59 798.224 1244.59 837.464 1225.9 837.464Z" transform="matrix(1 0 0 1.00089 -403.474 -146.004)"/><path d="M1149.02 686.398 1167.71 686.398 1167.71 707.7 1149.02 707.7Z" transform="matrix(1 0 0 1.00089 -403.474 -146.004)"/><path d="M1149.02 732.096 1167.71 732.096 1167.71 753.398 1149.02 753.398Z" transform="matrix(1 0 0 1.00089 -403.474 -146.004)"/><path d="M1149.02 777.794 1167.71 777.794 1167.71 799.096 1149.02 799.096Z" transform="matrix(1 0 0 1.00089 -403.474 -146.004)"/><path d="M1149.02 823.491 1167.71 823.491 1167.71 844.793 1149.02 844.793Z" transform="matrix(1 0 0 1.00089 -403.474 -146.004)"/><path d="M1149.02 869.189 1167.71 869.189 1167.71 890.491 1149.02 890.491Z" transform="matrix(1 0 0 1.00089 -403.474 -146.004)"/><path d="M1149.02 914.886 1167.71 914.886 1167.71 936.188 1149.02 936.188Z" transform="matrix(1 0 0 1.00089 -403.474 -146.004)"/><path d="M1389.32 456.083 1380.04 459.156C1345.52 470.575 1308.14 451.785 1296.72 417.258 1285.33 382.813 1304.01 345.504 1338.41 334.001L1348.28 331.282 1314 227.699 1078.55 305.599 1084.39 323.247 1302.21 251.181 1324.77 319.406C1285.7 336.887 1265.35 381.609 1279.1 423.092 1292.8 464.533 1335.67 488.285 1377.41 479.129L1404.5 560.995 1422.15 555.161 1389.32 456.083Z" transform="matrix(1 0 0 1.00089 -403.474 -146.004)"/><path d="M696.515 378.303 1024.13 378.303 1024.13 396.991 696.515 396.991Z" transform="matrix(0.949307 -0.31435 0.314069 0.950155 -481.686 144.082)"/><path d="M616.554 399.527 598.823 405.403C603.1 418.358 602.374 433.432 596.809 446.782 591.141 460.36 581.445 470.015 569.486 473.96L569.486 473.98 467.44 507.74 547.645 750.18 565.375 744.304 491.026 519.595 575.653 491.587C601.979 483.136 631.794 505.082 639.974 529.768L657.705 523.893C649.504 499.103 660.466 463.516 686.876 454.775L681 437.044C654.175 445.931 624.838 424.566 616.554 399.527ZM642.382 475.101C640.099 480.666 638.438 486.479 637.441 492.355 633.123 488.223 628.347 484.548 623.177 481.455 616.513 477.448 609.62 474.562 602.685 472.859 607.253 467.419 611.073 461.066 614.042 453.945 616.326 448.464 617.987 442.754 619.004 436.961 628.908 446.346 641.033 452.99 653.719 455.959 649.172 461.481 645.331 467.897 642.382 475.101Z" transform="matrix(1 0 0 1.00089 -403.474 -146.004)"/><path d="M1201.71 370.143 1220.4 370.143 1220.4 521.224 1201.71 521.224Z" transform="matrix(0.949307 -0.31435 0.314069 0.950155 -482.163 257.279)"/><path d="M1156.59 383.411 1175.28 383.411 1175.28 472.718 1156.59 472.718Z" transform="matrix(0.949307 -0.31435 0.314069 0.950155 -478.917 242.201)"/><path d="M1183.85 490.866 1202.54 490.866 1202.54 530.111 1183.85 530.111Z" transform="matrix(0.949307 -0.31435 0.314069 0.950155 -503.424 254.958)"/><path d="M1044.49 325.303 1063.18 325.303 1063.18 343.077 1044.49 343.077Z" transform="matrix(0.949337 -0.31426 0.313979 0.950185 -455.108 202.109)"/><path d="M1058.51 365.896 1077.19 365.896 1077.19 387.199 1058.51 387.199Z" transform="matrix(0.949337 -0.31426 0.313979 0.950185 -467.697 208.654)"/><path d="M1072.91 409.304 1091.6 409.304 1091.6 430.609 1072.91 430.609Z" transform="matrix(0.949307 -0.31435 0.314069 0.950155 -480.601 215.483)"/><path d="M1087.26 452.681 1105.94 452.681 1105.94 473.985 1087.26 473.985Z" transform="matrix(0.949307 -0.31435 0.314069 0.950155 -493.502 222.193)"/><path d="M1101.57 496.063 1120.26 496.063 1120.26 517.366 1101.57 517.366Z" transform="matrix(0.949337 -0.31426 0.313979 0.950185 -506.39 228.779)"/><path d="M1115.97 539.475 1134.66 539.475 1134.66 560.78 1115.97 560.78Z" transform="matrix(0.949307 -0.31435 0.314069 0.950155 -519.301 235.582)"/><path d="M2643.4 1032.21 2587.12 1032.21" stroke="#2EA7E0" stroke-width="18.686" stroke-miterlimit="10" fill="none" transform="matrix(1 0 0 1.00089 -403.474 -146.004)"/><path d="M2588.05 695.97 2826.75 695.97 2826.75 786.015 2826.05 785.974C2784.5 785.974 2750.8 819.671 2750.8 861.216 2750.8 902.761 2784.5 936.458 2826.05 936.458L2826.55 936.458 2826.55 1031.53 2768.72 1031.53" stroke="#2EA7E0" stroke-width="18.5822" stroke-miterlimit="10" fill="none" transform="matrix(1 0 0 1.00089 -403.474 -146.004)"/><path d="M2191.24 695.97 2518.83 695.97" stroke="#2EA7E0" stroke-width="18.686" stroke-miterlimit="10" fill="none" transform="matrix(1 0 0 1.00089 -403.474 -146.004)"/><path d="M2518.83 1032.21 1953.72 1032.21 1953.72 695.97 2052.39 695.97" stroke="#2EA7E0" stroke-width="18.686" stroke-miterlimit="10" fill="none" transform="matrix(1 0 0 1.00089 -403.474 -146.004)"/><path d="M2051.87 695.949C2084.32 695.949 2110.6 729.314 2110.6 761.744 2110.6 729.293 2136.91 695.949 2169.34 695.949 2136.89 695.949 2110.6 663.165 2110.6 630.735 2110.62 663.186 2084.32 695.949 2051.87 695.949Z" stroke="#2EA7E0" stroke-width="18.686" stroke-miterlimit="10" fill="none" transform="matrix(1 0 0 1.00089 -403.474 -146.004)"/><path d="M2665.02 1031.53C2697.47 1031.53 2723.75 1064.89 2723.75 1097.32 2723.75 1064.87 2750.06 1031.53 2782.49 1031.53 2750.04 1031.53 2723.75 998.164 2723.75 965.712 2723.77 998.164 2697.47 1031.53 2665.02 1031.53" stroke="#2EA7E0" stroke-width="18.686" stroke-miterlimit="10" fill="none" transform="matrix(1 0 0 1.00089 -403.474 -146.004)"/><path d="M2669.77 785.683 2669.77 936.749" stroke="#2EA7E0" stroke-width="18.686" stroke-miterlimit="10" fill="none" transform="matrix(1 0 0 1.00089 -403.474 -146.004)"/><path d="M2632.46 785.683 2632.46 874.961" stroke="#2EA7E0" stroke-width="18.686" stroke-miterlimit="10" fill="none" transform="matrix(1 0 0 1.00089 -403.474 -146.004)"/><path d="M2632.46 897.508 2632.46 936.749" stroke="#2EA7E0" stroke-width="18.686" stroke-miterlimit="10" fill="none" transform="matrix(1 0 0 1.00089 -403.474 -146.004)"/><path d="M2555.58 697.132 2555.58 714.905" stroke="#2EA7E0" stroke-width="18.686" stroke-miterlimit="10" fill="none" transform="matrix(1 0 0 1.00089 -403.474 -146.004)"/><path d="M2555.58 739.986 2555.58 761.288" stroke="#2EA7E0" stroke-width="18.686" stroke-miterlimit="10" fill="none" transform="matrix(1 0 0 1.00089 -403.474 -146.004)"/><path d="M2555.58 785.683 2555.58 806.985" stroke="#2EA7E0" stroke-width="18.686" stroke-miterlimit="10" fill="none" transform="matrix(1 0 0 1.00089 -403.474 -146.004)"/><path d="M2555.58 831.381 2555.58 852.683" stroke="#2EA7E0" stroke-width="18.686" stroke-miterlimit="10" fill="none" transform="matrix(1 0 0 1.00089 -403.474 -146.004)"/><path d="M2555.58 877.078 2555.58 898.38" stroke="#2EA7E0" stroke-width="18.686" stroke-miterlimit="10" fill="none" transform="matrix(1 0 0 1.00089 -403.474 -146.004)"/><path d="M2555.58 922.776 2555.58 944.078" stroke="#2EA7E0" stroke-width="18.686" stroke-miterlimit="10" fill="none" transform="matrix(1 0 0 1.00089 -403.474 -146.004)"/><path d="M2555.58 968.474 2555.58 989.776" stroke="#2EA7E0" stroke-width="18.686" stroke-miterlimit="10" fill="none" transform="matrix(1 0 0 1.00089 -403.474 -146.004)"/><path d="M2555.58 1014.17 2555.58 1035.47" stroke="#2EA7E0" stroke-width="18.686" stroke-miterlimit="10" fill="none" transform="matrix(1 0 0 1.00089 -403.474 -146.004)"/><path d="M1894.99 130.906 2768.02 130.906 2768.02 467.15 1894.99 467.15Z" stroke="#2EA7E0" stroke-width="18.686" stroke-miterlimit="10" fill="none" transform="matrix(1 0 0 1.00089 -403.474 -146.004)"/><path d="M2847.58 297.252C2847.58 340.229 2812.74 375.069 2769.76 375.069 2726.78 375.069 2691.94 340.229 2691.94 297.252 2691.94 254.275 2726.78 219.436 2769.76 219.436 2812.74 219.436 2847.58 254.275 2847.58 297.252Z" stroke="#2EA7E0" stroke-width="18.686" stroke-miterlimit="10" fill="none" transform="matrix(1 0 0 1.00089 -403.474 -146.004)"/><path d="M1993.13 130.906C2025.58 130.906 2051.87 157.211 2051.87 189.642 2051.87 157.191 2078.17 130.906 2110.6 130.906 2078.15 130.906 2051.87 104.6 2051.87 72.1694 2051.87 104.6 2025.56 130.906 1993.13 130.906" stroke="#2EA7E0" stroke-width="18.686" stroke-miterlimit="10" fill="none" transform="matrix(1 0 0 1.00089 -403.474 -146.004)"/><path d="M2606.28 467.15C2638.73 467.15 2665.02 493.455 2665.02 525.886 2665.02 493.434 2691.32 467.15 2723.75 467.15 2691.3 467.15 2665.02 440.844 2665.02 408.413 2665.02 440.844 2638.73 467.15 2606.28 467.15" stroke="#2EA7E0" stroke-width="18.686" stroke-miterlimit="10" fill="none" transform="matrix(1 0 0 1.00089 -403.474 -146.004)"/><path d="M2610.43 219.436 2610.43 370.501" stroke="#2EA7E0" stroke-width="18.686" stroke-miterlimit="10" fill="none" transform="matrix(1 0 0 1.00089 -403.474 -146.004)"/><path d="M2571.94 219.436 2571.94 306.969" stroke="#2EA7E0" stroke-width="18.686" stroke-miterlimit="10" fill="none" transform="matrix(1 0 0 1.00089 -403.474 -146.004)"/><path d="M2571.94 331.282 2571.94 370.501" stroke="#2EA7E0" stroke-width="18.686" stroke-miterlimit="10" fill="none" transform="matrix(1 0 0 1.00089 -403.474 -146.004)"/><path d="M2496.3 130.906 2496.3 148.678" stroke="#2EA7E0" stroke-width="18.686" stroke-miterlimit="10" fill="none" transform="matrix(1 0 0 1.00089 -403.474 -146.004)"/><path d="M2496.9 173.738 2496.9 195.04" stroke="#2EA7E0" stroke-width="18.686" stroke-miterlimit="10" fill="none" transform="matrix(1 0 0 1.00089 -403.474 -146.004)"/><path d="M2496.9 219.436 2496.9 240.738" stroke="#2EA7E0" stroke-width="18.686" stroke-miterlimit="10" fill="none" transform="matrix(1 0 0 1.00089 -403.474 -146.004)"/><path d="M2496.9 265.133 2496.9 286.435" stroke="#2EA7E0" stroke-width="18.686" stroke-miterlimit="10" fill="none" transform="matrix(1 0 0 1.00089 -403.474 -146.004)"/><path d="M2496.9 310.831 2496.9 332.133" stroke="#2EA7E0" stroke-width="18.686" stroke-miterlimit="10" fill="none" transform="matrix(1 0 0 1.00089 -403.474 -146.004)"/><path d="M2496.9 356.529 2496.9 377.851" stroke="#2EA7E0" stroke-width="18.686" stroke-miterlimit="10" fill="none" transform="matrix(1 0 0 1.00089 -403.474 -146.004)"/><path d="M2496.9 402.247 2496.9 423.549" stroke="#2EA7E0" stroke-width="18.686" stroke-miterlimit="10" fill="none" transform="matrix(1 0 0 1.00089 -403.474 -146.004)"/><path d="M2496.9 447.944 2496.9 469.246" stroke="#2EA7E0" stroke-width="18.686" stroke-miterlimit="10" fill="none" transform="matrix(1 0 0 1.00089 -403.474 -146.004)"/><text font-family="Noto Sans TC,Noto Sans TC_MSFontService,sans-serif" font-weight="700" font-size="96" transform="matrix(1 0 0 1.00003 369.426 597)">$60<tspan font-size="96" x="-59.2554" y="114.997">折價券</tspan></text></g></svg>