<svg width="1134" height="945" xmlns="http://www.w3.org/2000/svg" xmlns:xlink="http://www.w3.org/1999/xlink" overflow="hidden"><defs><clipPath id="clip0"><rect x="0" y="0" width="1134" height="945"/></clipPath></defs><g clip-path="url(#clip0)"><rect x="0" y="0" width="1134" height="945.028" fill="#FFFFFF" fill-opacity="0"/><path d="M1149.68 598.21 1168.38 598.21 1168.38 615.993 1149.68 615.993Z" transform="matrix(1 0 0 1.00032 -420.474 -146.004)"/><path d="M1149.68 641.067 1168.38 641.067 1168.38 662.381 1149.68 662.381Z" transform="matrix(1 0 0 1.00032 -420.474 -146.004)"/><path d="M1190.58 924.114 1246.9 924.114 1246.9 942.811 1190.58 942.811Z" transform="matrix(1 0 0 1.00032 -420.474 -146.004)"/><path d="M1429.42 696.388 1439.64 696.929 1439.64 587.74 1191.52 587.74 1191.52 606.333 1421.07 606.333 1421.07 678.232C1378.46 682.553 1345.08 718.638 1345.08 762.388 1345.08 806.055 1378.34 842.098 1420.86 846.523L1420.86 923.511 1386.11 923.511C1358.27 923.511 1336.69 893.098 1336.69 866.964L1317.99 866.964C1317.99 893.098 1296.41 923.449 1268.57 923.449L1268.57 942.146C1296.41 942.146 1317.99 972.518 1317.99 998.63L1336.69 998.63C1336.69 972.518 1358.27 942.083 1386.11 942.083L1439.46 942.083 1439.46 828.366 1429.67 828.366C1393.3 828.366 1363.69 798.763 1363.69 762.388 1363.65 726.054 1393.13 696.513 1429.42 696.388ZM1327.32 962.691C1320.94 950.601 1311.57 939.944 1300.17 932.797 1311.57 925.651 1320.94 914.973 1327.32 902.904 1333.7 914.994 1343.06 925.651 1354.47 932.818 1343.04 939.944 1333.7 950.601 1327.32 962.691Z" transform="matrix(1 0 0 1.00032 -420.474 -146.004)"/><path d="M794.484 587.678 1122.26 587.678 1122.26 606.374 794.484 606.374Z" transform="matrix(1 0 0 1.00032 -420.474 -146.004)"/><path d="M566.177 606.374 655.36 606.374C683.031 606.624 704.449 636.829 704.449 662.859L723.146 662.859C723.146 636.725 744.73 606.374 772.567 606.374L772.567 587.678C744.273 587.678 723.146 558.158 723.146 531.775L704.449 531.775C704.449 558.158 683.301 587.678 655.027 587.678L655.027 587.699 547.48 587.699 547.48 942.831 1122.26 942.831 1122.26 924.135 566.177 924.135 566.177 606.374ZM713.797 568.316C720.258 580.303 729.689 590.358 740.783 597.13 729.44 604.276 720.154 614.913 713.797 626.92 707.44 614.892 698.154 604.276 686.812 597.13 697.926 590.358 707.336 580.282 713.797 568.316Z" transform="matrix(1 0 0 1.00032 -420.474 -146.004)"/><path d="M1263.94 686.791 1282.63 686.791 1282.63 837.943 1263.94 837.943Z" transform="matrix(1 0 0 1.00032 -420.474 -146.004)"/><path d="M1226.61 686.791 1245.3 686.791 1245.3 776.14 1226.61 776.14Z" transform="matrix(1 0 0 1.00032 -420.474 -146.004)"/><path d="M1226.61 798.68 1245.3 798.68 1245.3 837.943 1226.61 837.943Z" transform="matrix(1 0 0 1.00032 -420.474 -146.004)"/><path d="M1149.68 686.791 1168.38 686.791 1168.38 708.105 1149.68 708.105Z" transform="matrix(1 0 0 1.00032 -420.474 -146.004)"/><path d="M1149.68 732.515 1168.38 732.515 1168.38 753.829 1149.68 753.829Z" transform="matrix(1 0 0 1.00032 -420.474 -146.004)"/><path d="M1149.68 778.238 1168.38 778.238 1168.38 799.553 1149.68 799.553Z" transform="matrix(1 0 0 1.00032 -420.474 -146.004)"/><path d="M1149.68 823.962 1168.38 823.962 1168.38 845.276 1149.68 845.276Z" transform="matrix(1 0 0 1.00032 -420.474 -146.004)"/><path d="M1149.68 869.686 1168.38 869.686 1168.38 891 1149.68 891Z" transform="matrix(1 0 0 1.00032 -420.474 -146.004)"/><path d="M1149.68 915.41 1168.38 915.41 1168.38 936.724 1149.68 936.724Z" transform="matrix(1 0 0 1.00032 -420.474 -146.004)"/><path d="M1390.12 456.344 1380.83 459.419C1346.28 470.844 1308.89 452.044 1297.47 417.497 1286.06 383.032 1304.76 345.701 1339.18 334.193L1349.05 331.471 1314.75 227.829 1079.17 305.774 1085.01 323.432 1302.95 251.325 1325.53 319.588C1286.43 337.08 1266.08 381.827 1279.83 423.334 1293.54 464.799 1336.44 488.565 1378.19 479.403L1405.3 561.315 1422.96 555.478 1390.12 456.344Z" transform="matrix(1 0 0 1.00032 -420.474 -146.004)"/><path d="M696.874 378.499 1024.66 378.499 1024.66 397.196 696.874 397.196Z" transform="matrix(0.949361 -0.314188 0.314087 0.949666 -498.731 144.082)"/><path d="M616.907 399.755 599.166 405.635C603.445 418.598 602.718 433.68 597.151 447.037 591.479 460.624 581.778 470.283 569.812 474.231L569.812 474.251 467.707 508.03 547.958 750.609 565.699 744.73 491.307 519.892 575.982 491.868C602.323 483.413 632.155 505.371 640.34 530.071L658.081 524.192C649.875 499.388 660.844 463.781 687.269 455.035L681.39 437.294C654.549 446.186 625.196 424.809 616.907 399.755ZM642.75 475.373C640.465 480.941 638.803 486.757 637.806 492.636 633.485 488.502 628.707 484.825 623.534 481.73 616.865 477.721 609.968 474.833 603.03 473.13 607.6 467.687 611.423 461.33 614.393 454.204 616.678 448.72 618.34 443.007 619.358 437.211 629.267 446.601 641.4 453.249 654.092 456.219 649.543 461.745 645.7 468.165 642.75 475.373Z" transform="matrix(1 0 0 1.00032 -420.474 -146.004)"/><path d="M1202.33 370.334 1221.03 370.334 1221.03 521.492 1202.33 521.492Z" transform="matrix(0.949361 -0.314188 0.314087 0.949666 -499.208 257.279)"/><path d="M1157.18 383.609 1175.88 383.609 1175.88 472.962 1157.18 472.962Z" transform="matrix(0.949361 -0.314188 0.314087 0.949666 -495.96 242.201)"/><path d="M1184.46 491.119 1203.16 491.119 1203.16 530.384 1184.46 530.384Z" transform="matrix(0.949361 -0.314188 0.314087 0.949666 -520.481 254.958)"/><path d="M1045.03 325.471 1063.73 325.471 1063.73 343.253 1045.03 343.253Z" transform="matrix(0.949391 -0.314098 0.313997 0.949696 -472.137 202.109)"/><path d="M1059.05 366.084 1077.75 366.084 1077.75 387.399 1059.05 387.399Z" transform="matrix(0.949391 -0.314098 0.313997 0.949696 -484.733 208.654)"/><path d="M1073.46 409.515 1092.16 409.515 1092.16 430.831 1073.46 430.831Z" transform="matrix(0.949361 -0.314188 0.314087 0.949666 -497.645 215.483)"/><path d="M1087.82 452.914 1106.51 452.914 1106.51 474.229 1087.82 474.229Z" transform="matrix(0.949361 -0.314188 0.314087 0.949666 -510.553 222.193)"/><path d="M1102.14 496.318 1120.83 496.318 1120.83 517.633 1102.14 517.633Z" transform="matrix(0.949391 -0.314098 0.313997 0.949696 -523.449 228.779)"/><path d="M1116.55 539.753 1135.25 539.753 1135.25 561.069 1116.55 561.069Z" transform="matrix(0.949361 -0.314188 0.314087 0.949666 -536.367 235.582)"/><path d="M2644.91 1032.8 2588.59 1032.8" stroke="#2EA7E0" stroke-width="18.6967" stroke-miterlimit="10" fill="none" transform="matrix(1 0 0 1.00032 -420.474 -146.004)"/><path d="M2589.53 696.368 2828.37 696.368 2828.37 786.465 2827.66 786.423C2786.09 786.423 2752.38 820.14 2752.38 861.709 2752.38 903.277 2786.09 936.994 2827.66 936.994L2828.16 936.994 2828.16 1032.12 2770.31 1032.12" stroke="#2EA7E0" stroke-width="18.5928" stroke-miterlimit="10" fill="none" transform="matrix(1 0 0 1.00032 -420.474 -146.004)"/><path d="M2192.5 696.368 2520.27 696.368" stroke="#2EA7E0" stroke-width="18.6967" stroke-miterlimit="10" fill="none" transform="matrix(1 0 0 1.00032 -420.474 -146.004)"/><path d="M2520.27 1032.8 1954.84 1032.8 1954.84 696.368 2053.56 696.368" stroke="#2EA7E0" stroke-width="18.6967" stroke-miterlimit="10" fill="none" transform="matrix(1 0 0 1.00032 -420.474 -146.004)"/><path d="M2053.04 696.347C2085.51 696.347 2111.81 729.731 2111.81 762.18 2111.81 729.71 2138.13 696.347 2170.58 696.347 2138.11 696.347 2111.81 663.545 2111.81 631.096 2111.83 663.565 2085.51 696.347 2053.04 696.347Z" stroke="#2EA7E0" stroke-width="18.6967" stroke-miterlimit="10" fill="none" transform="matrix(1 0 0 1.00032 -420.474 -146.004)"/><path d="M2666.54 1032.12C2699.01 1032.12 2725.31 1065.5 2725.31 1097.95 2725.31 1065.48 2751.63 1032.12 2784.08 1032.12 2751.61 1032.12 2725.31 998.734 2725.31 966.264 2725.33 998.734 2699.01 1032.12 2666.54 1032.12" stroke="#2EA7E0" stroke-width="18.6967" stroke-miterlimit="10" fill="none" transform="matrix(1 0 0 1.00032 -420.474 -146.004)"/><path d="M2671.3 786.133 2671.3 937.285" stroke="#2EA7E0" stroke-width="18.6967" stroke-miterlimit="10" fill="none" transform="matrix(1 0 0 1.00032 -420.474 -146.004)"/><path d="M2633.97 786.133 2633.97 875.461" stroke="#2EA7E0" stroke-width="18.6967" stroke-miterlimit="10" fill="none" transform="matrix(1 0 0 1.00032 -420.474 -146.004)"/><path d="M2633.97 898.022 2633.97 937.285" stroke="#2EA7E0" stroke-width="18.6967" stroke-miterlimit="10" fill="none" transform="matrix(1 0 0 1.00032 -420.474 -146.004)"/><path d="M2557.04 697.531 2557.04 715.314" stroke="#2EA7E0" stroke-width="18.6967" stroke-miterlimit="10" fill="none" transform="matrix(1 0 0 1.00032 -420.474 -146.004)"/><path d="M2557.04 740.409 2557.04 761.723" stroke="#2EA7E0" stroke-width="18.6967" stroke-miterlimit="10" fill="none" transform="matrix(1 0 0 1.00032 -420.474 -146.004)"/><path d="M2557.04 786.133 2557.04 807.447" stroke="#2EA7E0" stroke-width="18.6967" stroke-miterlimit="10" fill="none" transform="matrix(1 0 0 1.00032 -420.474 -146.004)"/><path d="M2557.04 831.856 2557.04 853.17" stroke="#2EA7E0" stroke-width="18.6967" stroke-miterlimit="10" fill="none" transform="matrix(1 0 0 1.00032 -420.474 -146.004)"/><path d="M2557.04 877.58 2557.04 898.894" stroke="#2EA7E0" stroke-width="18.6967" stroke-miterlimit="10" fill="none" transform="matrix(1 0 0 1.00032 -420.474 -146.004)"/><path d="M2557.04 923.304 2557.04 944.618" stroke="#2EA7E0" stroke-width="18.6967" stroke-miterlimit="10" fill="none" transform="matrix(1 0 0 1.00032 -420.474 -146.004)"/><path d="M2557.04 969.027 2557.04 990.342" stroke="#2EA7E0" stroke-width="18.6967" stroke-miterlimit="10" fill="none" transform="matrix(1 0 0 1.00032 -420.474 -146.004)"/><path d="M2557.04 1014.75 2557.04 1036.07" stroke="#2EA7E0" stroke-width="18.6967" stroke-miterlimit="10" fill="none" transform="matrix(1 0 0 1.00032 -420.474 -146.004)"/><path d="M1896.07 130.981 2769.6 130.981 2769.6 467.417 1896.07 467.417Z" stroke="#2EA7E0" stroke-width="18.6967" stroke-miterlimit="10" fill="none" transform="matrix(1 0 0 1.00032 -420.474 -146.004)"/><path d="M2849.21 297.422C2849.21 340.424 2814.35 375.284 2771.34 375.284 2728.34 375.284 2693.48 340.424 2693.48 297.422 2693.48 254.421 2728.34 219.561 2771.34 219.561 2814.35 219.561 2849.21 254.421 2849.21 297.422Z" stroke="#2EA7E0" stroke-width="18.6967" stroke-miterlimit="10" fill="none" transform="matrix(1 0 0 1.00032 -420.474 -146.004)"/><path d="M1994.27 130.981C2026.74 130.981 2053.04 157.301 2053.04 189.75 2053.04 157.281 2079.36 130.981 2111.81 130.981 2079.34 130.981 2053.04 104.66 2053.04 72.2107 2053.04 104.66 2026.72 130.981 1994.27 130.981" stroke="#2EA7E0" stroke-width="18.6967" stroke-miterlimit="10" fill="none" transform="matrix(1 0 0 1.00032 -420.474 -146.004)"/><path d="M2607.77 467.417C2640.24 467.417 2666.54 493.737 2666.54 526.187 2666.54 493.717 2692.86 467.417 2725.31 467.417 2692.84 467.417 2666.54 441.096 2666.54 408.647 2666.54 441.096 2640.24 467.417 2607.77 467.417" stroke="#2EA7E0" stroke-width="18.6967" stroke-miterlimit="10" fill="none" transform="matrix(1 0 0 1.00032 -420.474 -146.004)"/><path d="M2611.92 219.561 2611.92 370.713" stroke="#2EA7E0" stroke-width="18.6967" stroke-miterlimit="10" fill="none" transform="matrix(1 0 0 1.00032 -420.474 -146.004)"/><path d="M2573.41 219.561 2573.41 307.145" stroke="#2EA7E0" stroke-width="18.6967" stroke-miterlimit="10" fill="none" transform="matrix(1 0 0 1.00032 -420.474 -146.004)"/><path d="M2573.41 331.471 2573.41 370.713" stroke="#2EA7E0" stroke-width="18.6967" stroke-miterlimit="10" fill="none" transform="matrix(1 0 0 1.00032 -420.474 -146.004)"/><path d="M2497.73 130.981 2497.73 148.763" stroke="#2EA7E0" stroke-width="18.6967" stroke-miterlimit="10" fill="none" transform="matrix(1 0 0 1.00032 -420.474 -146.004)"/><path d="M2498.33 173.837 2498.33 195.152" stroke="#2EA7E0" stroke-width="18.6967" stroke-miterlimit="10" fill="none" transform="matrix(1 0 0 1.00032 -420.474 -146.004)"/><path d="M2498.33 219.561 2498.33 240.875" stroke="#2EA7E0" stroke-width="18.6967" stroke-miterlimit="10" fill="none" transform="matrix(1 0 0 1.00032 -420.474 -146.004)"/><path d="M2498.33 265.285 2498.33 286.599" stroke="#2EA7E0" stroke-width="18.6967" stroke-miterlimit="10" fill="none" transform="matrix(1 0 0 1.00032 -420.474 -146.004)"/><path d="M2498.33 311.009 2498.33 332.323" stroke="#2EA7E0" stroke-width="18.6967" stroke-miterlimit="10" fill="none" transform="matrix(1 0 0 1.00032 -420.474 -146.004)"/><path d="M2498.33 356.732 2498.33 378.067" stroke="#2EA7E0" stroke-width="18.6967" stroke-miterlimit="10" fill="none" transform="matrix(1 0 0 1.00032 -420.474 -146.004)"/><path d="M2498.33 402.477 2498.33 423.791" stroke="#2EA7E0" stroke-width="18.6967" stroke-miterlimit="10" fill="none" transform="matrix(1 0 0 1.00032 -420.474 -146.004)"/><path d="M2498.33 448.201 2498.33 469.515" stroke="#2EA7E0" stroke-width="18.6967" stroke-miterlimit="10" fill="none" transform="matrix(1 0 0 1.00032 -420.474 -146.004)"/><text font-family="Noto Sans TC,Noto Sans TC_MSFontService,sans-serif" font-weight="700" font-size="96" transform="matrix(1 0 0 1.00003 369.426 597)">$20<tspan font-size="96" x="-59.2554" y="114.997">折價券</tspan></text></g></svg>